<svg width="404" height="449" viewBox="0 0 404 449" fill="none" xmlns="http://www.w3.org/2000/svg">
    <style>
        .out {
            fill: #282828;
        }

        @media (prefers-color-scheme: dark) {
            .out {
              fill: white;
            }
          }

    </style>

    <path class="out" fill-rule="evenodd" clip-rule="evenodd" d="M115.727 87.3417C100.137 116.386 100.403 145.494 104.691 167.594C106.837 178.651 109.977 187.869 112.573 194.306C113.869 197.52 115.024 200.028 115.844 201.71C116.254 202.551 116.579 203.185 116.795 203.597C116.903 203.803 116.983 203.953 117.034 204.046C117.059 204.092 117.076 204.124 117.086 204.142L117.09 204.149L117.093 204.153L117.094 204.157L120.144 209.6L114.765 212.776C95.084 224.396 72.4991 247.048 54.5273 267.306C45.62 277.346 37.9826 286.64 32.5726 293.424C29.869 296.814 27.7251 299.572 26.2608 301.479C25.5287 302.432 24.9668 303.171 24.5899 303.67C24.555 303.716 24.5217 303.76 24.49 303.802C7.95443 343.434 11.5619 377.067 19.2399 400.83C23.1149 412.823 28.0375 422.324 31.9713 428.799C33.9362 432.034 35.6482 434.503 36.8487 436.14C36.8686 436.167 36.8884 436.194 36.9081 436.22H268.598C271.203 421.336 266.833 410.682 258.943 402.59C250.575 394.008 237.899 387.995 224.036 383.896C210.284 379.83 196.016 377.834 185.103 376.864C179.667 376.38 175.108 376.156 171.92 376.052C170.328 376 169.08 375.978 168.24 375.969C167.82 375.965 167.502 375.964 167.293 375.964C167.189 375.963 167.113 375.964 167.064 375.964L167.013 375.964L167.006 375.964L167.004 375.964C167.004 375.964 167.004 375.964 167.004 375.954L164.707 363.592C177.012 358.976 183.142 352.662 186.093 346.364C189.115 339.915 189.257 332.516 187.731 325.036C186.207 317.567 183.117 310.517 180.319 305.239C178.933 302.624 177.649 300.5 176.721 299.044C176.258 298.318 175.885 297.761 175.636 297.395C175.6 297.342 175.566 297.292 175.535 297.247C175.46 297.138 175.401 297.054 175.359 296.995C175.33 296.953 175.31 296.925 175.298 296.909L175.293 296.901C175.292 296.9 175.291 296.899 175.29 296.898C175.29 296.897 175.29 296.897 175.29 296.897C175.289 296.896 175.289 296.896 175.289 296.896C175.289 296.896 175.289 296.896 175.289 296.896C173.227 294.036 173.871 290.045 176.727 287.979C179.586 285.912 183.579 286.554 185.646 289.414L180.469 293.158C185.646 289.414 185.647 289.417 185.649 289.419L185.665 289.441L185.699 289.488C185.726 289.527 185.763 289.579 185.809 289.644C185.9 289.774 186.028 289.957 186.187 290.191C186.506 290.658 186.952 291.326 187.492 292.174C188.571 293.867 190.033 296.287 191.605 299.251C194.722 305.132 198.391 313.381 200.247 322.481C202.101 331.569 202.243 342.006 197.66 351.788C195.524 356.347 192.454 360.565 188.333 364.329C199.446 365.408 213.693 367.512 227.657 371.641C242.407 376.002 257.506 382.814 268.088 393.667C278.286 404.127 283.965 418.04 281.587 435.798L342.166 435.915C351.774 430.795 357.025 425.258 359.818 420.174C362.724 414.882 363.275 409.523 362.648 404.541C362.012 399.484 360.166 394.897 358.397 391.496C357.523 389.816 356.696 388.479 356.102 387.58C355.805 387.132 355.569 386.797 355.418 386.588C355.385 386.542 355.356 386.502 355.331 386.468C347.126 377.269 333.687 373.33 321.139 371.953C314.977 371.277 309.363 371.256 305.287 371.406C303.255 371.481 301.621 371.598 300.511 371.694C299.957 371.742 299.534 371.785 299.259 371.815C299.182 371.823 299.116 371.83 299.063 371.837C299.021 371.841 298.987 371.845 298.96 371.848L298.898 371.856L298.896 371.856L298.893 371.856L298.891 371.857L298.889 371.857L291.668 372.774L291.789 348.194C291.806 344.665 294.68 341.818 298.207 341.835C301.735 341.853 304.58 344.727 304.563 348.256L304.512 358.647C304.613 358.643 304.714 358.639 304.817 358.635C309.338 358.468 315.597 358.489 322.532 359.25C336.1 360.739 353.666 365.212 365.08 378.205L365.205 378.347L365.321 378.497L360.282 382.423C365.321 378.497 365.323 378.499 365.325 378.502L365.343 378.524L365.375 378.566C365.389 378.585 365.405 378.606 365.424 378.631C365.438 378.649 365.453 378.669 365.469 378.691C365.545 378.792 365.646 378.928 365.77 379.099C366.017 379.441 366.354 379.921 366.754 380.527C367.554 381.736 368.618 383.46 369.73 385.598C371.932 389.833 374.438 395.906 375.323 402.946C376.217 410.061 375.458 418.236 371.013 426.328C366.581 434.397 358.794 441.821 346.611 448.006L345.243 448.701L276.785 448.568C276.005 448.566 275.258 448.425 274.568 448.168C273.638 448.697 272.561 449 271.414 449H30.8274L28.9145 446.75L33.7798 442.61C28.9145 446.75 28.9122 446.747 28.9097 446.745L28.9037 446.738L28.8884 446.719L28.8444 446.667C28.809 446.625 28.7619 446.568 28.7036 446.497C28.5869 446.355 28.4252 446.156 28.2226 445.9C27.8175 445.389 27.2485 444.653 26.5494 443.7C25.1516 441.794 23.2301 439.017 21.0547 435.436C16.7075 428.281 11.3214 417.874 7.08451 404.761C-1.41497 378.455 -5.24628 341.344 13.0249 298.108L13.3253 297.398L13.7862 296.779L18.9081 300.597C13.7862 296.779 13.7868 296.778 13.7876 296.777L13.7902 296.774L13.8301 296.72L13.948 296.563C14.051 296.425 14.2024 296.224 14.4003 295.962C14.7962 295.438 15.3782 294.672 16.1315 293.692C17.6379 291.731 19.8298 288.91 22.5869 285.453C28.0984 278.543 35.882 269.07 44.9728 258.823C61.6025 240.078 83.0805 218.19 103.233 204.921C102.491 203.301 101.637 201.346 100.726 199.087C97.8926 192.062 94.4837 182.049 92.151 170.029C87.4887 146.004 87.0735 113.621 104.543 81.1655L104.598 81.0629L104.657 80.9624L110.167 84.1949C104.657 80.9624 104.658 80.9599 104.66 80.9571L104.664 80.9498L104.676 80.9289L104.716 80.8629C104.748 80.8082 104.794 80.7321 104.852 80.6354C104.969 80.442 105.137 80.166 105.356 79.8136C105.794 79.1087 106.437 78.097 107.279 76.8262C108.962 74.2856 111.447 70.7036 114.7 66.4628C121.196 57.9942 130.805 46.8297 143.257 36.0774C168.111 14.6158 204.92 -5.695 251.075 1.46366L252.026 1.61124L357.276 52.8717L373.04 77.8453L356.666 131.749L353.62 132.825L353.619 132.825L353.614 132.827L353.497 132.868C353.413 132.898 353.287 132.943 353.122 133.002C352.791 133.12 352.303 133.294 351.679 133.519C350.43 133.97 348.639 134.621 346.478 135.422C342.151 137.026 336.362 139.221 330.482 141.599C324.577 143.987 318.691 146.515 314.125 148.784C311.83 149.924 310.002 150.933 308.716 151.769C308.17 152.123 307.796 152.399 307.559 152.592C307.315 153.207 307.001 154.35 306.746 156.258C306.441 158.537 306.283 161.35 306.183 164.684C306.131 166.394 306.096 168.242 306.06 170.183C305.96 175.474 305.846 181.463 305.351 187.276L305.311 195.509C305.294 199.038 302.42 201.884 298.892 201.867C295.365 201.85 292.519 198.975 292.536 195.446L292.579 186.692L292.602 186.43C293.076 181.002 293.178 175.598 293.277 170.358C293.316 168.311 293.354 166.289 293.414 164.3C293.517 160.874 293.688 157.521 294.084 154.562C294.465 151.723 295.125 148.603 296.564 146.012C297.303 144.68 298.323 143.685 299.073 143.035C299.895 142.322 300.824 141.657 301.76 141.049C303.635 139.832 305.953 138.575 308.442 137.338C313.446 134.852 319.685 132.181 325.694 129.751C331.729 127.31 337.643 125.068 342.04 123.438C343.705 122.821 345.155 122.291 346.316 121.87L359.118 79.7244L348.416 62.7701L248.178 13.9507C207.564 7.99958 174.736 25.7774 151.604 45.7517C139.974 55.7943 130.951 66.2699 124.835 74.2427C121.782 78.2227 119.467 81.5618 117.926 83.887C117.156 85.0492 116.581 85.9567 116.204 86.5627C116.016 86.8656 115.877 87.0931 115.789 87.2392C115.764 87.2797 115.744 87.3139 115.727 87.3417ZM307.316 152.808C307.313 152.81 307.322 152.8 307.344 152.779C307.328 152.797 307.318 152.806 307.316 152.808ZM257.267 65.6079C258.154 65.6079 258.874 64.888 258.874 63.9999C258.874 63.1119 258.154 62.392 257.267 62.392C256.379 62.392 255.659 63.1119 255.659 63.9999C255.659 64.888 256.379 65.6079 257.267 65.6079ZM246.099 63.9999C246.099 57.83 251.099 52.8283 257.266 52.8283C263.434 52.8283 268.434 57.83 268.434 63.9999C268.434 70.1699 263.434 75.1716 257.266 75.1716C251.099 75.1716 246.099 70.1699 246.099 63.9999Z" fill="#292929"/>
    <path class="out" fill-rule="evenodd" clip-rule="evenodd" d="M206.696 38.8344C210.084 37.2646 214.103 38.74 215.672 42.1298L209.79 44.8548C215.672 42.1298 215.673 42.1317 215.674 42.134L215.686 42.1603L215.717 42.2274C215.743 42.2843 215.78 42.3652 215.827 42.4695C215.922 42.6782 216.058 42.9805 216.231 43.3711C216.576 44.1522 217.071 45.2871 217.678 46.7328C218.892 49.6229 220.561 53.7623 222.404 58.8064C226.08 68.8679 230.492 82.653 233.329 97.3689C236.15 111.999 237.514 128.04 234.71 142.412C231.871 156.964 224.627 170.267 210.019 178.074C195.693 185.731 181.937 185.1 169.8 179.822C157.986 174.686 147.903 165.263 139.857 155.543C131.75 145.749 125.325 135.177 120.947 127.125C118.749 123.082 117.047 119.637 115.889 117.189C115.31 115.964 114.865 114.986 114.562 114.306C114.41 113.966 114.293 113.7 114.213 113.514C114.172 113.422 114.141 113.349 114.119 113.297L114.092 113.235L114.081 113.209C114.08 113.206 114.079 113.204 120.306 110.569L114.079 113.204C112.624 109.764 114.233 105.795 117.672 104.34C121.11 102.884 125.076 104.492 126.532 107.931M126.533 107.933L126.548 107.968C126.562 108.001 126.585 108.053 126.616 108.126C126.679 108.272 126.778 108.496 126.91 108.793C127.176 109.388 127.578 110.274 128.112 111.401C129.179 113.658 130.767 116.874 132.826 120.662C136.962 128.269 142.915 138.027 150.272 146.915C157.689 155.876 166.153 163.486 175.19 167.416C183.903 171.204 193.299 171.673 203.647 166.142C213.713 160.763 219.143 151.58 221.438 139.821C223.767 127.882 222.723 113.788 220.051 99.9309C217.396 86.1595 213.231 73.1057 209.703 63.4502C207.944 58.6357 206.355 54.697 205.211 51.9737C204.64 50.6126 204.18 49.557 203.867 48.8492C203.71 48.4954 203.59 48.2287 203.511 48.0544C203.471 47.9672 203.442 47.9032 203.424 47.863L203.404 47.8206L203.402 47.8144L209.537 44.9721C203.401 47.8144 203.401 47.8133 203.401 47.8125C201.833 44.4231 203.308 40.4038 206.696 38.8344" fill="#292929"/>
    <path fill-rule="evenodd" clip-rule="evenodd" d="M299.16 195.73C279.551 172.869 246.784 165.803 222.214 186.738C197.645 207.672 194.186 242.673 213.48 267.433C229.522 288.018 278.071 331.436 293.983 345.488C295.763 347.06 296.653 347.846 297.691 348.155C298.597 348.424 299.589 348.424 300.495 348.155C301.534 347.846 302.423 347.06 304.204 345.488C320.116 331.436 368.664 288.018 384.707 267.433C404.001 242.673 400.964 207.452 375.972 186.738C350.98 166.023 318.77 172.869 299.16 195.73Z" fill="#C1E1C1"/>
    <path class="out" fill-rule="evenodd" clip-rule="evenodd" d="M217.83 181.588C243.739 159.512 277.281 165.189 299.157 185.928C320.995 165.183 354.042 159.777 380.286 181.529C408.161 204.634 411.526 244.019 390.039 271.592C381.647 282.36 365.116 298.704 349.039 313.837C332.833 329.091 316.658 343.512 308.679 350.559L308.678 350.56L308.544 350.678C307.77 351.362 306.923 352.109 306.13 352.705C305.211 353.395 303.999 354.17 302.42 354.639C300.259 355.281 297.929 355.282 295.765 354.639L297.688 348.166L295.767 354.639C295.766 354.639 295.766 354.639 295.765 354.639C294.188 354.17 292.976 353.396 292.057 352.705C291.26 352.107 290.411 351.357 289.634 350.67L289.508 350.559L293.983 345.488L289.508 350.558C281.528 343.511 265.353 329.091 249.147 313.837C233.071 298.704 216.54 282.36 208.148 271.592C186.601 243.942 190.538 204.843 217.83 181.588ZM294.029 200.135C276.27 179.43 247.704 173.904 226.598 191.887C204.752 210.501 201.771 241.405 218.813 263.274C226.463 273.091 242.227 288.748 258.414 303.984C274.47 319.098 290.526 333.412 298.458 340.417L298.458 340.418C298.697 340.629 298.905 340.813 299.093 340.978C299.281 340.813 299.49 340.628 299.729 340.417C307.661 333.412 323.716 319.098 339.773 303.984C355.959 288.748 371.724 273.091 379.374 263.274C396.476 241.328 393.766 210.27 371.658 191.946C350.067 174.05 322.002 179.487 304.292 200.135C303.007 201.633 301.133 202.494 299.16 202.494C297.188 202.494 295.314 201.633 294.029 200.135Z" fill="#292929"/>
    <path d="M286.212 218.419V247.097H257.546V272.999H286.212V301.677H312.104V272.999H340.77V247.097H312.104V218.419H286.212Z" fill="#FFF8F8"/>
    <path fill-rule="evenodd" clip-rule="evenodd" d="M279.825 218.419C279.825 214.89 282.685 212.03 286.212 212.03H312.104C315.632 212.03 318.492 214.89 318.492 218.419V240.707H340.77C344.298 240.707 347.158 243.568 347.158 247.097V272.999C347.158 276.528 344.298 279.389 340.77 279.389H318.492V301.677C318.492 305.206 315.632 308.067 312.104 308.067H286.212C282.685 308.067 279.825 305.206 279.825 301.677V279.389H257.546C254.018 279.389 251.159 276.528 251.159 272.999V247.097C251.159 243.568 254.018 240.707 257.546 240.707H279.825V218.419ZM292.599 224.809V247.097C292.599 250.626 289.74 253.487 286.212 253.487H263.933V266.61H286.212C289.74 266.61 292.599 269.47 292.599 272.999V295.287H305.717V272.999C305.717 269.47 308.577 266.61 312.104 266.61H334.383V253.487H312.104C308.577 253.487 305.717 250.626 305.717 247.097V224.809H292.599Z" fill="#292929"/>
</svg>
    